<svg xmlns="http://www.w3.org/2000/svg" width="16" height="16" viewBox="0 0 16 16">
  <metadata><?xpacket begin="﻿" id="W5M0MpCehiHzreSzNTczkc9d"?>
<x:xmpmeta xmlns:x="adobe:ns:meta/" x:xmptk="Adobe XMP Core 5.6-c142 79.160924, 2017/07/13-01:06:39        ">
   <rdf:RDF xmlns:rdf="http://www.w3.org/1999/02/22-rdf-syntax-ns#">
      <rdf:Description rdf:about=""/>
   </rdf:RDF>
</x:xmpmeta>
                                                                                                    
                                                                                                    
                                                                                                    
                                                                                                    
                                                                                                    
                                                                                                    
                                                                                                    
                                                                                                    
                                                                                                    
                                                                                                    
                                                                                                    
                                                                                                    
                                                                                                    
                                                                                                    
                                                                                                    
                                                                                                    
                                                                                                    
                                                                                                    
                                                                                                    
                                                                                                    
                           
<?xpacket end="w"?></metadata>
<defs>
    <style>
      .cls-1 {
        fill: #4d5665;
        fill-rule: evenodd;
      }
    </style>
  </defs>
  <path id="unread" class="cls-1" d="M1208.8,556.134c-0.14.167-3.4,4.077-7.56,4.077a7.685,7.685,0,0,1-2.97-.635l1.07-1.1a6.153,6.153,0,0,0,1.9.316c2.91,0,5.36-2.316,6.2-3.224a11.973,11.973,0,0,0-3-2.346l1.01-1.036a13.867,13.867,0,0,1,3.35,2.818A0.913,0.913,0,0,1,1208.8,556.134Zm-7.56,1.9a3.112,3.112,0,0,1-1.23-.255l4.16-4.278a3.431,3.431,0,0,1,.24,1.248A3.23,3.23,0,0,1,1201.24,558.038Zm-8.24,3.93,3.35-3.454a14.157,14.157,0,0,1-2.67-2.38,0.887,0.887,0,0,1,0-1.128c0.14-.167,3.4-4.077,7.56-4.077a7.3,7.3,0,0,1,2.15.338l4.14-4.268,1,1.033L1194,563Zm5.59-9.016a11.607,11.607,0,0,0-3.55,2.618,12.856,12.856,0,0,0,2.3,1.921l1.13-1.162A3.344,3.344,0,0,1,1198.59,552.952Z" transform="translate(-1193 -547)"/>
</svg>
